<?xml version="1.0" encoding="UTF-8" standalone="no"?>
<svg
   xmlns:dc="http://purl.org/dc/elements/1.1/"
   xmlns:cc="http://creativecommons.org/ns#"
   xmlns:rdf="http://www.w3.org/1999/02/22-rdf-syntax-ns#"
   xmlns:svg="http://www.w3.org/2000/svg"
   xmlns="http://www.w3.org/2000/svg"
   xmlns:sodipodi="http://sodipodi.sourceforge.net/DTD/sodipodi-0.dtd"
   xmlns:inkscape="http://www.inkscape.org/namespaces/inkscape"
   version="1.0"
   width="320"
   height="320"
   id="svg7217"
   sodipodi:docname="Microchip-Logo.svg"
   inkscape:version="1.0.2-2 (e86c870879, 2021-01-15)">
  <metadata
     id="metadata18">
    <rdf:RDF>
      <cc:Work
         rdf:about="">
        <dc:format>image/svg+xml</dc:format>
        <dc:type
           rdf:resource="http://purl.org/dc/dcmitype/StillImage" />
        <dc:title></dc:title>
      </cc:Work>
    </rdf:RDF>
  </metadata>
  <sodipodi:namedview
     pagecolor="#ffffff"
     bordercolor="#666666"
     borderopacity="1"
     objecttolerance="10"
     gridtolerance="10"
     guidetolerance="10"
     inkscape:pageopacity="0"
     inkscape:pageshadow="2"
     inkscape:window-width="2189"
     inkscape:window-height="1411"
     id="namedview16"
     showgrid="false"
     inkscape:zoom="1.2581862"
     inkscape:cx="604.75522"
     inkscape:cy="184.30058"
     inkscape:window-x="2736"
     inkscape:window-y="655"
     inkscape:window-maximized="0"
     inkscape:current-layer="svg7217" />
  <defs
     id="defs7219" />
  <g
     id="g865"
     transform="matrix(0.95478986,0,0,0.95478986,-190.04331,-6.931537)">
    <path
       d="m 355.4196,267.05224 c 0,0 13.27735,23.33593 28.2982,0 L 412.82066,224.67205 327.12144,87.60693 c 0,0 -13.27736,-18.37366 -29.10287,0 l -29.90753,41.44144 z m 11.66798,66.52089 c 44.92838,0 85.69923,-16.63021 115.60673,-43.18496 l -102.32937,-160.40102 31.65102,-43.319 c 13.27735,-17.43488 27.35937,0 27.35937,0 l 87.44268,138.0039 c 4.1576,-11.66798 6.5716,-24.9453 7.3763,-37.41799 L 435.21777,31.01061 c -20.78774,-8.31512 -43.98955,-13.27735 -68.13019,-13.27735 -87.04036,0 -168.04555,66.78905 -168.04555,157.98697 0,14.08202 2.41404,28.16405 5.7669,40.6367 l 49.08593,-67.32553 34.19925,52.43884 c 8.18097,12.47265 0,23.20181 0,23.20181 l -43.31904,59.8151 c 32.72396,32.724 76.57943,49.08598 122.31251,49.08598"
       style="fill:#ec1b24;fill-rule:evenodd;stroke:none"
       id="path197" />
  </g>
</svg>
